<svg width="163" height="40" viewBox="0 0 163 40" fill="none" xmlns="http://www.w3.org/2000/svg">
  <path
    d="M58.208 29V12.2H65.288C66.28 12.2 67.168 12.44 67.952 12.92C68.752 13.384 69.384 14.024 69.848 14.84C70.328 15.64 70.568 16.544 70.568 17.552C70.568 18.592 70.328 19.528 69.848 20.36C69.384 21.176 68.752 21.832 67.952 22.328C67.168 22.808 66.28 23.048 65.288 23.048H61.664V29H58.208ZM61.64 19.904H64.928C65.52 19.904 66.016 19.688 66.416 19.256C66.832 18.808 67.04 18.256 67.04 17.6C67.04 16.944 66.832 16.408 66.416 15.992C66.016 15.56 65.52 15.344 64.928 15.344H61.64V19.904Z"
    fill="#F7F8FA" />
  <path
    d="M78.959 29.24C77.663 29.24 76.511 28.96 75.503 28.4C74.495 27.824 73.703 27.04 73.127 26.048C72.551 25.056 72.263 23.92 72.263 22.64C72.263 21.376 72.551 20.248 73.127 19.256C73.703 18.264 74.495 17.488 75.503 16.928C76.511 16.352 77.663 16.064 78.959 16.064C80.223 16.064 81.359 16.352 82.367 16.928C83.375 17.488 84.167 18.264 84.743 19.256C85.319 20.248 85.607 21.376 85.607 22.64C85.607 23.92 85.319 25.056 84.743 26.048C84.167 27.04 83.375 27.824 82.367 28.4C81.359 28.96 80.223 29.24 78.959 29.24ZM78.959 26.384C79.599 26.384 80.175 26.224 80.687 25.904C81.199 25.568 81.591 25.12 81.863 24.56C82.151 24 82.295 23.36 82.295 22.64C82.295 21.92 82.151 21.28 81.863 20.72C81.591 20.16 81.199 19.72 80.687 19.4C80.175 19.08 79.599 18.92 78.959 18.92C78.303 18.92 77.719 19.08 77.207 19.4C76.695 19.72 76.295 20.16 76.007 20.72C75.719 21.28 75.575 21.92 75.575 22.64C75.575 23.36 75.719 24 76.007 24.56C76.295 25.12 76.695 25.568 77.207 25.904C77.719 26.224 78.303 26.384 78.959 26.384Z"
    fill="#F7F8FA" />
  <path
    d="M93.2122 29.24C92.0922 29.24 91.0922 28.96 90.2122 28.4C89.3322 27.824 88.6362 27.04 88.1242 26.048C87.6282 25.056 87.3802 23.928 87.3802 22.664C87.3802 21.384 87.6282 20.248 88.1242 19.256C88.6362 18.264 89.3322 17.488 90.2122 16.928C91.0922 16.352 92.0922 16.064 93.2122 16.064C93.9802 16.064 94.7082 16.216 95.3962 16.52C96.1002 16.824 96.6682 17.216 97.1002 17.696V11.24H100.388V29H97.2682L97.2202 27.488C96.8042 27.984 96.2362 28.4 95.5162 28.736C94.7962 29.072 94.0282 29.24 93.2122 29.24ZM93.9322 26.504C94.9082 26.504 95.7002 26.152 96.3082 25.448C96.9162 24.728 97.2202 23.8 97.2202 22.664C97.2202 21.512 96.9162 20.584 96.3082 19.88C95.7002 19.16 94.9082 18.8 93.9322 18.8C92.9562 18.8 92.1642 19.16 91.5562 19.88C90.9482 20.584 90.6442 21.512 90.6442 22.664C90.6442 23.8 90.9482 24.728 91.5562 25.448C92.1642 26.152 92.9562 26.504 93.9322 26.504Z"
    fill="#F7F8FA" />
  <path
    d="M109.208 29.24C108.008 29.24 106.928 28.952 105.968 28.376C105.024 27.8 104.272 27.016 103.712 26.024C103.168 25.032 102.896 23.904 102.896 22.64C102.896 21.392 103.168 20.272 103.712 19.28C104.272 18.288 105.024 17.504 105.968 16.928C106.928 16.352 108.008 16.064 109.208 16.064C110.344 16.064 111.376 16.272 112.304 16.688C113.248 17.104 113.984 17.688 114.512 18.44L112.712 20.6C112.376 20.136 111.912 19.744 111.32 19.424C110.728 19.088 110.128 18.92 109.52 18.92C108.848 18.92 108.248 19.088 107.72 19.424C107.208 19.744 106.8 20.184 106.496 20.744C106.208 21.304 106.064 21.936 106.064 22.64C106.064 23.344 106.216 23.976 106.52 24.536C106.824 25.096 107.24 25.544 107.768 25.88C108.296 26.2 108.888 26.36 109.544 26.36C110.168 26.36 110.744 26.224 111.272 25.952C111.8 25.664 112.28 25.264 112.712 24.752L114.512 26.912C113.968 27.616 113.216 28.184 112.256 28.616C111.296 29.032 110.28 29.24 109.208 29.24Z"
    fill="#E65100" />
  <path
    d="M121.472 29.24C120.416 29.24 119.464 28.952 118.616 28.376C117.768 27.8 117.088 27.016 116.576 26.024C116.08 25.032 115.832 23.904 115.832 22.64C115.832 21.344 116.08 20.208 116.576 19.232C117.088 18.24 117.776 17.464 118.64 16.904C119.52 16.344 120.512 16.064 121.616 16.064C122.512 16.064 123.296 16.248 123.968 16.616C124.64 16.968 125.176 17.432 125.576 18.008V16.328H128.84V29H125.552V27.296C125.104 27.856 124.52 28.32 123.8 28.688C123.096 29.056 122.32 29.24 121.472 29.24ZM122.36 26.384C123.336 26.384 124.128 26.04 124.736 25.352C125.344 24.664 125.648 23.76 125.648 22.64C125.648 21.52 125.344 20.616 124.736 19.928C124.128 19.24 123.336 18.896 122.36 18.896C121.4 18.896 120.616 19.24 120.008 19.928C119.416 20.616 119.12 21.52 119.12 22.64C119.12 23.76 119.416 24.664 120.008 25.352C120.616 26.04 121.4 26.384 122.36 26.384Z"
    fill="#E65100" />
  <path
    d="M136.531 29.24C135.363 29.24 134.323 29.048 133.411 28.664C132.499 28.28 131.763 27.736 131.203 27.032L133.267 25.28C133.747 25.808 134.291 26.192 134.899 26.432C135.507 26.656 136.123 26.768 136.747 26.768C137.243 26.768 137.643 26.656 137.947 26.432C138.251 26.208 138.403 25.896 138.403 25.496C138.403 25.144 138.259 24.864 137.971 24.656C137.683 24.464 136.995 24.224 135.907 23.936C134.291 23.52 133.147 22.952 132.475 22.232C131.883 21.592 131.587 20.8 131.587 19.856C131.587 19.104 131.811 18.448 132.259 17.888C132.707 17.312 133.299 16.864 134.035 16.544C134.771 16.224 135.571 16.064 136.435 16.064C137.427 16.064 138.363 16.24 139.243 16.592C140.123 16.944 140.859 17.424 141.451 18.032L139.675 19.976C139.227 19.56 138.707 19.216 138.115 18.944C137.539 18.656 137.003 18.512 136.507 18.512C135.355 18.512 134.779 18.912 134.779 19.712C134.795 20.096 134.971 20.4 135.307 20.624C135.627 20.848 136.355 21.112 137.491 21.416C139.011 21.816 140.083 22.344 140.707 23C141.251 23.56 141.523 24.304 141.523 25.232C141.523 26 141.299 26.688 140.851 27.296C140.419 27.904 139.827 28.384 139.075 28.736C138.323 29.072 137.475 29.24 136.531 29.24Z"
    fill="#E65100" />
  <path d="M145.249 29V19.28H142.849V16.328H145.249V13.088H148.513V16.328H151.177V19.28H148.513V29H145.249Z"
    fill="#E65100" />
  <path
    d="M153.376 29V16.328H156.544L156.592 18.416C157.008 17.728 157.552 17.168 158.224 16.736C158.912 16.288 159.632 16.064 160.384 16.064C160.672 16.064 160.936 16.088 161.176 16.136C161.432 16.168 161.648 16.216 161.824 16.28L160.936 19.88C160.76 19.784 160.536 19.704 160.264 19.64C159.992 19.576 159.72 19.544 159.448 19.544C158.664 19.544 158 19.816 157.456 20.36C156.928 20.888 156.664 21.56 156.664 22.376V29H153.376Z"
    fill="#F7F8FA" />
  <path
    d="M38.2471 20.0135C38.2715 23.1802 37.4618 26.2976 35.8995 29.0522C35.6972 29.41 35.4829 29.76 35.2566 30.1023C35.1447 30.2762 34.9994 30.4262 34.8292 30.5435C34.6589 30.6609 34.467 30.7433 34.2647 30.7859C34.0623 30.8285 33.8535 30.8306 33.6504 30.7919C33.4472 30.7532 33.2538 30.6746 33.0812 30.5605C32.9087 30.4465 32.7605 30.2994 32.6453 30.1277C32.5301 29.956 32.45 29.7631 32.4099 29.5602C32.3698 29.3573 32.3703 29.1485 32.4114 28.9458C32.4526 28.7431 32.5336 28.5506 32.6497 28.3795C34.1408 26.1158 34.9907 23.4904 35.1092 20.7823C35.2276 18.0742 34.6102 15.3845 33.3224 12.9993C32.0346 10.6141 30.1247 8.62239 27.7956 7.23593C25.4666 5.84947 22.8054 5.12007 20.0949 5.12524C14.8851 5.1354 10.2658 7.87069 7.58081 11.9576C5.97572 14.3959 5.1216 17.2517 5.12438 20.1709C5.12715 23.0901 5.98671 25.9443 7.59643 28.3795C7.82465 28.7254 7.90611 29.1479 7.8229 29.5539C7.73968 29.9599 7.49861 30.3162 7.1527 30.5445C6.8068 30.7727 6.38441 30.8542 5.97845 30.771C5.57248 30.6877 5.2162 30.4466 4.98798 30.1007C3.20309 27.3917 2.17785 24.2533 2.01927 21.013C1.86068 17.7726 2.57455 14.5491 4.08638 11.6787C5.59822 8.80838 7.85261 6.39642 10.6143 4.69453C13.376 2.99264 16.5438 2.06321 19.7872 2.00321C19.9012 2.00087 20.0145 2.00008 20.1278 2.00008C24.9177 1.99022 29.5158 3.88145 32.9128 7.25866C36.3099 10.6359 38.2283 15.2231 38.2471 20.0135Z"
    fill="#494D4B" />
  <path
    d="M9.18958 22.9204L12.0213 37.0086C12.1913 37.8543 13.0146 38.4021 13.8602 38.2321C14.7059 38.0621 15.2536 37.2387 15.0836 36.3929L12.2519 22.3047C12.0819 21.459 11.2586 20.9112 10.4129 21.0813C9.56731 21.2513 9.01959 22.0747 9.18958 22.9204Z"
    fill="#E65100" />
  <path
    d="M11.9673 36.6908L11.2493 36.8353C10.1826 37.0501 9.07403 36.8492 8.15047 36.2737C7.22691 35.6981 6.55811 34.7914 6.28087 33.7391C6.25977 33.6578 6.24024 33.5765 6.22384 33.4937L5.19499 28.3818C4.97203 27.2721 5.19872 26.1193 5.82524 25.1767C6.45176 24.2341 7.42685 23.5789 8.53621 23.3549L9.25414 23.2104L10.5134 29.467L11.9673 36.6908Z"
    fill="#494D4B" />
  <path
    d="M11.9673 36.6908L11.2494 36.8353C10.1826 37.0501 9.07407 36.8492 8.15051 36.2737C7.22695 35.6981 6.55815 34.7915 6.2809 33.7391C7.79819 32.4246 9.21314 30.9965 10.5135 29.467L11.9673 36.6908Z"
    fill="#494D4B" />
  <path
    d="M36.2698 27.2137L35.8995 29.0521C35.6972 29.41 35.4829 29.76 35.2566 30.1022C35.1447 30.2761 34.9994 30.4261 34.8291 30.5434C34.6589 30.6608 34.467 30.7432 34.2646 30.7858C34.0623 30.8284 33.8535 30.8305 33.6504 30.7918C33.4472 30.7531 33.2538 30.6745 33.0812 30.5605C32.9087 30.4465 32.7605 30.2993 32.6453 30.1276C32.53 29.9559 32.45 29.763 32.4099 29.5601C32.3698 29.3572 32.3703 29.1484 32.4114 28.9457C32.4526 28.7431 32.5336 28.5506 32.6497 28.3794C33.7088 26.7765 34.4481 24.9839 34.8269 23.1003C35.4149 23.5929 35.8593 24.2349 36.1132 24.9588C36.3671 25.6827 36.4212 26.4617 36.2698 27.2137Z"
    fill="#494D4B" />
  <path fill-rule="evenodd" clip-rule="evenodd"
    d="M33.3042 8.28452L34.4176 8.95503C32.723 6.78351 30.5546 5.02803 28.078 3.82263C25.6014 2.61724 22.8821 1.99383 20.1278 2C20.0145 2 19.9012 2.00078 19.7872 2.00312C16.9396 2.05374 14.1442 2.77571 11.6281 4.11035C9.11213 5.44499 6.94656 7.35462 5.30751 9.68397L6.98185 8.26468C8.3256 6.84888 9.89359 5.6555 11.6281 4.73539C14.1442 3.40075 16.9396 2.67877 19.7872 2.62816C19.9012 2.62582 20.0145 2.62503 20.1278 2.62503C22.8821 2.61886 25.6014 3.24228 28.078 4.44767C30.0412 5.4032 31.8108 6.70441 33.3042 8.28452Z"
    fill="#E65100" />
  <path
    d="M27.9689 22.2895L25.1372 36.3777C24.9672 37.2234 25.5149 38.0468 26.3605 38.2169C27.2062 38.3869 28.0295 37.8391 28.1995 36.9934L31.0312 22.9052C31.2012 22.0594 30.6535 21.236 29.8079 21.066C28.9622 20.896 28.1389 21.4438 27.9689 22.2895Z"
    fill="#E65100" />
  <path
    d="M35.0511 28.3818L34.0223 33.4937C33.7989 34.6033 33.144 35.5787 32.2015 36.2054C31.2591 36.8321 30.1063 37.0586 28.9968 36.8353L28.2789 36.6908L29.0226 32.9976L30.992 23.2104L31.7099 23.3549C32.8192 23.5791 33.7943 24.2341 34.4215 25.1761C34.5079 25.306 34.5869 25.4406 34.6582 25.5793C35.104 26.4416 35.2426 27.4301 35.0511 28.3818V28.3818Z"
    fill="#494D4B" />
  <path
    d="M35.0511 28.3818L34.0223 33.4937C33.7989 34.6034 33.144 35.5788 32.2015 36.2054C31.2591 36.8321 30.1063 37.0587 28.9968 36.8353L28.2789 36.6908L29.0226 32.9976C31.1628 30.735 33.0523 28.2478 34.6582 25.5793C35.104 26.4416 35.2426 27.4301 35.0511 28.3818V28.3818Z"
    fill="#494D4B" />
</svg>
